<svg width="17" height="20" viewBox="0 0 17 20" fill="none" xmlns="http://www.w3.org/2000/svg">
<g clip-path="url(#clip0_30_362)">
<path d="M8.5 19.623C13.1944 19.623 17 15.4431 17 10.2869C17 5.13072 13.1944 0.950821 8.5 0.950821C3.80558 0.950821 0 5.13072 0 10.2869C0 15.4431 3.80558 19.623 8.5 19.623Z" fill="#C00606"/>
<path d="M8.49984 18.067C4.59411 18.067 1.4165 14.5768 1.4165 10.2869C1.4165 5.997 4.59411 2.50685 8.49984 2.50685C12.4057 2.50685 15.5832 5.997 15.5832 10.2869C15.5832 14.5768 12.4057 18.067 8.49984 18.067Z" fill="#C00606"/>
<path opacity="0.3" d="M12.6669 7.3187H11.1504V6.53089C11.1504 6.34964 11.0167 6.20273 10.8516 6.20273H6.67943C6.5144 6.20273 6.38062 6.34964 6.38062 6.53089V7.3187H4.86426V7.68335H5.56028L6.3155 14.3773C6.3527 14.707 6.60775 14.9545 6.91018 14.9545H10.6209C10.9233 14.9545 11.1784 14.707 11.2156 14.3773L11.9708 7.68335H12.6669V7.3187ZM7.34081 13.7864L7.01124 9.06275L7.34227 9.03498L7.67185 13.7586L7.34081 13.7864ZM8.93153 13.7725H8.59953V9.04887H8.93153V13.7725ZM10.1902 13.7864L9.85919 13.7586L10.1888 9.03498L10.5198 9.06275L10.1902 13.7864Z" fill="black"/>
<path d="M12.4012 7.02695H10.8848V6.23914C10.8848 6.05789 10.751 5.91098 10.586 5.91098H6.4138C6.24878 5.91098 6.115 6.05789 6.115 6.23914V7.02695H4.59863V7.3916H5.29466L6.04988 14.0855C6.08707 14.4152 6.34212 14.6628 6.64456 14.6628H10.3552C10.6577 14.6628 10.9127 14.4152 10.9499 14.0855L11.7052 7.3916H12.4012V7.02695ZM7.07518 13.4946L6.74562 8.77101L7.07664 8.74323L7.40622 13.4669L7.07518 13.4946ZM8.66591 13.4808H8.3339V8.75712H8.66591V13.4808ZM9.92461 13.4946L9.59357 13.4669L9.92316 8.74323L10.2542 8.77101L9.92461 13.4946Z" fill="white"/>
</g>
<defs>
<clipPath id="clip0_30_362">
<rect width="17" height="18.6721" fill="white" transform="translate(0 0.950821)"/>
</clipPath>
</defs>
</svg>
