<svg width="172" height="172" viewBox="0 0 172 172" fill="none" xmlns="http://www.w3.org/2000/svg">
<g clip-path="url(#clip0_216_2)">
<path d="M70.09 68.3222C85.9222 68.3222 98.7567 55.4877 98.7567 39.6556C98.7567 23.8234 85.9222 10.9889 70.09 10.9889C54.2578 10.9889 41.4233 23.8234 41.4233 39.6556C41.4233 55.4877 54.2578 68.3222 70.09 68.3222Z" fill="#020E7D"/>
<path d="M78.5467 152.029C76.9678 150.467 75.9374 148.436 75.6101 146.24C75.2828 144.043 75.6761 141.8 76.7311 139.846L79.2633 135.068L74.0555 133.491C71.9319 132.826 70.083 131.487 68.7896 129.676C67.4962 127.866 66.8289 125.682 66.8889 123.458V113.663C66.8849 111.449 67.5934 109.291 68.9098 107.51C70.2261 105.73 72.0805 104.419 74.1989 103.773L79.4067 102.197L76.9222 97.4189C75.8981 95.4914 75.5085 93.29 75.8087 91.1281C76.109 88.9662 77.0839 86.9543 78.5944 85.3789C74.9188 84.897 71.217 84.6417 67.51 84.6144C56.5609 84.3567 45.6897 86.5182 35.672 90.9448C25.6543 95.3715 16.7368 101.954 9.55554 110.223V147.251C9.55554 148.518 10.0589 149.733 10.9549 150.629C11.8509 151.526 13.0662 152.029 14.3333 152.029H78.5467Z" fill="#020E7D"/>
<path d="M161.011 112.087L151.456 109.22C150.793 106.86 149.864 104.584 148.684 102.436L153.462 93.5489C153.647 93.2191 153.714 92.8364 153.654 92.4633C153.593 92.0902 153.408 91.7487 153.128 91.4945L146.2 84.5189C145.933 84.2592 145.593 84.0879 145.225 84.028C144.858 83.9682 144.481 84.0228 144.146 84.1845L135.307 88.9622C133.131 87.7804 130.842 86.82 128.474 86.0956L125.56 76.54C125.432 76.1877 125.198 75.8837 124.89 75.6698C124.582 75.456 124.215 75.3427 123.84 75.3456H113.902C113.53 75.356 113.169 75.4808 112.87 75.703C112.571 75.9252 112.348 76.2341 112.23 76.5878L109.363 86.1434C106.95 86.8456 104.625 87.8235 102.436 89.0578L93.7878 84.28C93.4515 84.1013 93.0677 84.0329 92.6904 84.0843C92.3132 84.1358 91.9616 84.3045 91.6855 84.5667L84.6622 91.4467C84.3857 91.7132 84.2034 92.0625 84.1431 92.4418C84.0828 92.8211 84.1476 93.2097 84.3278 93.5489L89.1055 102.244C87.8256 104.402 86.7843 106.693 86 109.077L76.4444 111.991C76.083 112.096 75.7657 112.316 75.5414 112.618C75.317 112.92 75.1979 113.287 75.2022 113.663V123.458C75.1979 123.834 75.317 124.201 75.5414 124.503C75.7657 124.805 76.083 125.026 76.4444 125.13L86 128.044C86.7162 130.384 87.6771 132.643 88.8666 134.781L84.0889 143.859C83.9087 144.198 83.8439 144.587 83.9042 144.966C83.9646 145.345 84.1468 145.695 84.4233 145.961L91.5422 152.889C91.8183 153.151 92.1698 153.32 92.5471 153.371C92.9243 153.423 93.3082 153.354 93.6444 153.176L102.579 148.398C104.705 149.541 106.947 150.454 109.268 151.121L112.134 160.916C112.255 161.277 112.485 161.591 112.794 161.814C113.103 162.037 113.474 162.157 113.854 162.158H123.649C124.021 162.147 124.382 162.023 124.681 161.8C124.98 161.578 125.204 161.269 125.321 160.916L128.188 151.121C130.48 150.463 132.692 149.549 134.781 148.398L143.811 153.176C144.147 153.354 144.531 153.423 144.908 153.371C145.286 153.32 145.637 153.151 145.913 152.889L152.889 145.961C153.151 145.685 153.32 145.334 153.371 144.956C153.423 144.579 153.354 144.195 153.176 143.859L148.398 134.877C149.541 132.784 150.454 130.573 151.121 128.283L160.677 125.369C161.036 125.253 161.351 125.032 161.581 124.733C161.812 124.435 161.946 124.073 161.967 123.697V113.807C161.978 113.46 161.896 113.117 161.727 112.814C161.559 112.511 161.311 112.26 161.011 112.087ZM118.823 134.638C115.665 134.647 112.575 133.719 109.945 131.972C107.314 130.224 105.261 127.735 104.046 124.82C102.831 121.905 102.508 118.695 103.119 115.596C103.729 112.498 105.245 109.65 107.475 107.413C109.705 105.177 112.548 103.652 115.645 103.032C118.742 102.413 121.953 102.726 124.871 103.932C127.79 105.139 130.285 107.184 132.041 109.809C133.796 112.435 134.733 115.522 134.733 118.68C134.733 122.904 133.059 126.956 130.076 129.947C127.094 132.938 123.047 134.625 118.823 134.638Z" fill="#020E7D"/>
</g>
<defs>
<clipPath id="clip0_216_2">
<rect width="172" height="172" fill="white"/>
</clipPath>
</defs>
</svg>
