<svg width="70" height="70" viewBox="0 0 70 70" fill="none" xmlns="http://www.w3.org/2000/svg">
<g clip-path="url(#clip0_38_227)">
<path d="M35 70C54.33 70 70 54.33 70 35C70 15.67 54.33 0 35 0C15.67 0 0 15.67 0 35C0 54.33 15.67 70 35 70Z" fill="#C00606"/>
<path d="M34.9999 64.1667C18.9175 64.1667 5.83325 51.0825 5.83325 35.0001C5.83325 18.9177 18.9175 5.8334 34.9999 5.8334C51.0829 5.8334 64.1666 18.9177 64.1666 35.0001C64.1666 51.0825 51.0829 64.1667 34.9999 64.1667Z" fill="#C00606"/>
<path opacity="0.3" d="M34.1317 24.2021L30.4752 27.8588C27.9978 30.3361 23.978 31.5662 20.3841 31.6389C19.755 31.6516 19.4542 32.415 19.8991 32.8599L39.3274 52.2881C39.7723 52.733 40.5356 52.4323 40.5483 51.8031C40.6212 48.2092 41.8511 44.1894 44.3285 41.7121L47.985 38.0556C51.8104 34.2301 51.8104 28.0277 47.985 24.2021C44.1596 20.3769 37.9571 20.3769 34.1317 24.2021Z" fill="black"/>
<path opacity="0.3" d="M26.1498 46.0373C27.7269 47.6142 30.1102 47.8876 31.9707 46.8644L25.3228 40.2166C24.2994 42.0771 24.5729 44.4604 26.1498 46.0373Z" fill="black"/>
<path opacity="0.3" d="M51.7255 20.4621C50.6926 19.4294 49.0181 19.4294 47.9852 20.4621C47.5941 20.8533 47.3524 21.3366 47.2576 21.842C47.8599 22.246 48.4276 22.7113 48.952 23.2358C49.4796 23.7634 49.9404 24.3325 50.3401 24.9306C50.8475 24.8364 51.333 24.5949 51.7255 24.2023C52.7583 23.1695 52.7583 21.495 51.7255 20.4621Z" fill="black"/>
<path d="M33.038 23.1084L29.3814 26.765C26.9041 29.2424 22.8843 30.4725 19.2903 30.5452C18.6612 30.5578 18.3604 31.3212 18.8054 31.7661L38.2337 51.1944C38.6786 51.6393 39.4419 51.3385 39.4546 50.7093C39.5274 47.1155 40.7574 43.0956 43.2347 40.6183L46.8913 36.9618C50.7167 33.1363 50.7167 26.934 46.8913 23.1084C43.0658 19.2831 36.8634 19.2831 33.038 23.1084Z" fill="white"/>
<path d="M25.0561 44.9435C26.6331 46.5205 29.0164 46.7938 30.877 45.7707L24.2291 39.1229C23.2057 40.9833 23.4791 43.3666 25.0561 44.9435Z" fill="white"/>
<path d="M50.6317 19.3683C49.5989 18.3356 47.9243 18.3356 46.8915 19.3683C46.5003 19.7595 46.2587 20.2428 46.1638 20.7482C46.7662 21.1522 47.3338 21.6175 47.8583 22.1421C48.3859 22.6696 48.8466 23.2388 49.2464 23.8369C49.7538 23.7426 50.2392 23.5011 50.6317 23.1085C51.6646 22.0757 51.6646 20.4012 50.6317 19.3683Z" fill="white"/>
</g>
<defs>
<clipPath id="clip0_38_227">
<rect width="70" height="70" fill="white"/>
</clipPath>
</defs>
</svg>
