<svg width="289" height="391" viewBox="0 0 289 391" fill="none" xmlns="http://www.w3.org/2000/svg">
<path d="M263 0H26C11.6406 0 0 11.6406 0 26V363C0 377.359 11.6406 389 26 389H263C277.359 389 289 377.359 289 363V26C289 11.6406 277.359 0 263 0Z" fill="#020E7D"/>
<path d="M14 244H21V388.5L17.5 388L14 386.5V244Z" fill="white"/>
<rect x="113" y="246" width="7" height="145" fill="white"/>
<rect x="102" y="301" width="7" height="90" fill="white"/>
<rect x="201" y="300" width="7" height="90" fill="white"/>
<rect x="69" y="216" width="7" height="173" fill="white"/>
<rect x="267" y="217" width="7" height="173" fill="white"/>
<rect x="146" y="267" width="7" height="124" fill="white"/>
<rect x="124" y="318" width="7" height="73" fill="white"/>
<rect x="25" y="310" width="7" height="79" fill="white"/>
<rect x="223" y="311" width="7" height="79" fill="white"/>
<rect x="157" y="292" width="7" height="97" fill="white"/>
<path d="M3 276H10V384L6.5 379.27L3.5 372.964L3 276Z" fill="white"/>
<rect x="91" y="210" width="7" height="179" fill="white"/>
<rect x="80" y="270" width="7" height="119" fill="white"/>
<rect x="278" y="271" width="7" height="119" fill="white"/>
<rect x="212" y="272" width="7" height="119" fill="white"/>
<rect x="36" y="225" width="7" height="164" fill="white"/>
<rect x="234" y="226" width="7" height="164" fill="white"/>
<rect x="168" y="227" width="7" height="164" fill="white"/>
<rect x="58" y="261" width="7" height="128" fill="white"/>
<rect x="256" y="262" width="7" height="128" fill="white"/>
<rect x="190" y="263" width="7" height="128" fill="white"/>
<rect x="47" y="162" width="7" height="227" fill="white"/>
<rect x="245" y="163" width="7" height="227" fill="white"/>
<rect x="179" y="164" width="7" height="227" fill="white"/>
<rect x="135" y="234" width="7" height="157" fill="white"/>
</svg>
