<svg width="17" height="17" viewBox="0 0 17 17" fill="none" xmlns="http://www.w3.org/2000/svg">
<g clip-path="url(#clip0_82_65)">
<path d="M8.5 17C13.1944 17 17 13.1944 17 8.5C17 3.80558 13.1944 0 8.5 0C3.80558 0 0 3.80558 0 8.5C0 13.1944 3.80558 17 8.5 17Z" fill="#C00606"/>
<path d="M8.49984 15.5834C4.59411 15.5834 1.4165 12.4057 1.4165 8.50002C1.4165 4.59429 4.59411 1.41669 8.49984 1.41669C12.4057 1.41669 15.5832 4.59429 15.5832 8.50002C15.5832 12.4057 12.4057 15.5834 8.49984 15.5834Z" fill="#C00606"/>
<path opacity="0.3" d="M12.6669 5.79762H11.1504V5.08036C11.1504 4.91534 11.0167 4.78159 10.8516 4.78159H6.67943C6.5144 4.78159 6.38062 4.91534 6.38062 5.08036V5.79762H4.86426V6.12962H5.56028L6.3155 12.2241C6.3527 12.5242 6.60775 12.7496 6.91018 12.7496H10.6209C10.9233 12.7496 11.1784 12.5242 11.2156 12.2241L11.9708 6.12962H12.6669V5.79762ZM7.34081 11.6861L7.01124 7.38549L7.34227 7.3602L7.67185 11.6608L7.34081 11.6861ZM8.93153 11.6735H8.59953V7.37285H8.93153V11.6735ZM10.1902 11.6861L9.85919 11.6608L10.1888 7.3602L10.5198 7.38549L10.1902 11.6861Z" fill="black"/>
<path d="M12.4012 5.53199H10.8848V4.81474C10.8848 4.64971 10.751 4.51596 10.586 4.51596H6.4138C6.24878 4.51596 6.115 4.64971 6.115 4.81474V5.53199H4.59863V5.86399H5.29466L6.04988 11.9585C6.08707 12.2586 6.34212 12.484 6.64456 12.484H10.3552C10.6577 12.484 10.9127 12.2586 10.9499 11.9585L11.7052 5.86399H12.4012V5.53199ZM7.07518 11.4205L6.74562 7.11986L7.07664 7.09458L7.40622 11.3952L7.07518 11.4205ZM8.66591 11.4079H8.3339V7.10722H8.66591V11.4079ZM9.92461 11.4205L9.59357 11.3952L9.92316 7.09458L10.2542 7.11986L9.92461 11.4205Z" fill="white"/>
</g>
<defs>
<clipPath id="clip0_82_65">
<rect width="17" height="17" fill="white"/>
</clipPath>
</defs>
</svg>
