<svg width="48" height="49" viewBox="0 0 48 49" fill="none" xmlns="http://www.w3.org/2000/svg">
<g clip-path="url(#clip0_11_207)">
<path fill-rule="evenodd" clip-rule="evenodd" d="M41.5809 31.6692C41.1864 41.2884 33.4256 48.9639 23.9058 48.9639C14.1336 48.9639 6.21168 40.605 6.21168 30.9011C6.21168 29.6041 6.18891 27.0119 8.09404 22.6384C9.23418 20.021 9.94928 18.3767 10.3529 16.8737C10.5746 16.0476 11.0058 14.7352 12.2352 16.8737C12.9601 18.1346 12.9882 19.9482 12.9882 19.9482C12.9882 19.9482 15.6852 17.8354 17.5058 13.7992C20.1748 7.88208 18.0453 4.34505 17.3176 1.88544C17.0657 1.03457 16.9076 -0.494614 18.6352 0.156029C20.3956 0.819162 25.0495 4.14482 27.4823 7.65015C30.9543 12.653 32.1882 17.4501 32.1882 17.4501C32.1882 17.4501 33.2999 16.0416 33.694 14.5678C34.1392 12.9035 34.1458 11.2552 35.5762 13.0307C36.9366 14.7192 38.9569 17.8923 40.094 20.909C42.1588 26.3872 41.5809 31.6692 41.5809 31.6692Z" fill="url(#paint0_linear_11_207)"/>
<path fill-rule="evenodd" clip-rule="evenodd" d="M23.9057 48.9639C17.1482 48.9639 11.6704 43.3719 11.6704 36.4737C11.6704 32.3114 13.3135 29.7843 16.7332 26.3574C18.9227 24.1632 20.9721 21.4682 21.843 19.6331C22.0145 19.2718 22.4047 17.3892 23.9093 19.5935C24.6986 20.7495 25.9358 22.8054 26.7292 24.56C28.097 27.5851 28.4234 30.5168 28.4234 30.5168C28.4234 30.5168 29.7638 29.7105 30.6822 27.6345C30.9783 26.9654 31.5769 24.4324 33.2503 26.965C34.4781 28.8235 36.1649 32.1651 36.141 36.4737C36.141 43.3719 30.663 48.9639 23.9057 48.9639Z" fill="#FC9502"/>
<path fill-rule="evenodd" clip-rule="evenodd" d="M24.0941 35.3207C25.8352 35.3207 25.8352 38.6122 28.047 43.007C29.5198 45.9334 27.3168 48.9639 24.0941 48.9639C20.8713 48.9639 19.2 46.2969 19.2 43.007C19.2 39.7173 22.3529 35.3207 24.0941 35.3207Z" fill="#FCE202"/>
</g>
<defs>
<linearGradient id="paint0_linear_11_207" x1="23.9323" y1="49" x2="23.9323" y2="0.036123" gradientUnits="userSpaceOnUse">
<stop stop-color="#FF4C0D"/>
<stop offset="1" stop-color="#FC9502"/>
</linearGradient>
<clipPath id="clip0_11_207">
<rect width="48" height="49" fill="white"/>
</clipPath>
</defs>
</svg>
