<svg width="70" height="70" viewBox="0 0 70 70" fill="none" xmlns="http://www.w3.org/2000/svg">
<path d="M21.7211 70C17.0558 60.2925 19.5403 54.73 23.1259 49.4893C27.0525 43.75 28.0644 38.0688 28.0644 38.0688C28.0644 38.0688 31.1512 42.0815 29.9164 48.3575C35.3695 42.2872 36.3987 32.6156 35.5752 28.9116C47.9014 37.5256 53.1694 56.1771 46.07 70C83.83 48.6356 55.4625 16.668 50.5238 13.067C52.1701 16.6678 52.4823 22.7638 49.1567 25.7221C43.5271 4.37496 29.6078 0 29.6078 0C31.2541 11.0089 23.6404 23.047 16.2985 32.0421C16.0406 27.6523 15.7666 24.6232 13.4581 20.4224C12.94 28.3969 6.84563 34.8973 5.19529 42.8873C2.95984 53.7075 6.86978 61.6301 21.7211 70Z" fill="#C00606"/>
</svg>
