<svg width="229" height="229" viewBox="0 0 229 229" fill="none" xmlns="http://www.w3.org/2000/svg">
<g clip-path="url(#clip0_30_704)">
<path d="M149.958 131.733C148.97 130.783 149.362 129.497 150.853 128.864C152.344 128.23 154.338 128.491 155.344 129.423C162.388 136.132 158.997 141.573 155.735 146.791C153.275 150.742 150.909 154.525 155.269 158.327C156.332 159.259 156.015 160.545 154.58 161.216C153.145 161.887 151.114 161.7 150.051 160.768C143.585 155.122 146.585 150.295 149.734 145.263C152.362 141.033 155.12 136.635 149.958 131.733ZM28.1527 88.386H165.407C167.196 88.386 168.65 89.8396 168.65 91.6287V114.476H213.619C216.34 114.476 218.818 113.358 220.607 111.569C222.396 109.78 223.515 107.302 223.515 104.581V52.3997C223.515 49.6789 222.396 47.2003 220.607 45.4112C218.818 43.6222 216.34 42.504 213.619 42.504H17.3997C14.6789 42.504 12.2003 43.6222 10.4112 45.4112C8.60352 47.2003 7.48535 49.6789 7.48535 52.3997V104.581C7.48535 107.302 8.60352 109.78 10.3926 111.569C12.1816 113.358 14.6602 114.476 17.3811 114.476H24.8914V91.6287C24.9101 89.8396 26.3637 88.386 28.1527 88.386ZM162.165 94.8713H31.3954V113.675H162.165V94.8713ZM29.3455 61.4196C27.5564 61.4196 26.1028 59.966 26.1028 58.1769C26.1028 56.3879 27.5564 54.9342 29.3455 54.9342H204.04C205.829 54.9342 207.283 56.3879 207.283 58.1769C207.283 59.966 205.829 61.4196 204.04 61.4196H29.3455ZM184.714 95.6168C187.249 95.6168 189.299 97.6667 189.299 100.201C189.299 102.736 187.249 104.786 184.714 104.786C182.18 104.786 180.13 102.736 180.13 100.201C180.13 97.6667 182.198 95.6168 184.714 95.6168ZM203.854 95.6168C206.388 95.6168 208.438 97.6667 208.438 100.201C208.438 102.736 206.388 104.786 203.854 104.786C201.319 104.786 199.269 102.736 199.269 100.201C199.269 97.6667 201.319 95.6168 203.854 95.6168ZM17.3997 36H213.619C218.129 36 222.229 37.845 225.192 40.8081C228.155 43.7712 230 47.8712 230 52.3811V104.581C230 109.091 228.155 113.191 225.192 116.154C222.229 119.117 218.129 120.962 213.619 120.962H17.3997C12.8898 120.962 8.78988 119.117 5.82674 116.154C2.84497 113.191 1 109.091 1 104.581V52.3997C1 47.8898 2.84497 43.7899 5.8081 40.8267C8.78988 37.845 12.8898 36 17.3997 36ZM29.3455 76.5521C27.5564 76.5521 26.1028 75.0985 26.1028 73.3094C26.1028 71.5203 27.5564 70.0667 29.3455 70.0667H204.04C205.829 70.0667 207.283 71.5203 207.283 73.3094C207.283 75.0985 205.829 76.5521 204.04 76.5521H29.3455ZM40.8253 131.733C39.8376 130.783 40.2289 129.497 41.7198 128.864C43.2107 128.23 45.2048 128.491 46.2111 129.423C53.2555 136.132 49.8638 141.573 46.6025 146.791C44.1425 150.742 41.7757 154.525 46.1366 158.327C47.1988 159.259 46.882 160.545 45.447 161.216C44.012 161.887 41.9807 161.7 40.9185 160.768C34.4517 155.122 37.4521 150.295 40.6016 145.263C43.2293 141.033 45.9688 136.635 40.8253 131.733ZM68.1085 131.733C67.1208 130.783 67.5121 129.497 69.003 128.864C70.4939 128.23 72.488 128.491 73.4943 129.423C80.5387 136.132 77.147 141.573 73.8857 146.791C71.4257 150.742 69.0589 154.525 73.4198 158.327C74.482 159.259 74.1652 160.545 72.7302 161.216C71.2952 161.887 69.2639 161.7 68.2017 160.768C61.7349 155.122 64.7353 150.295 67.8848 145.263C70.5125 141.033 73.252 136.635 68.1085 131.733ZM95.3917 131.733C94.404 130.783 94.7953 129.497 96.2862 128.864C97.7771 128.23 99.7712 128.491 100.778 129.423C107.822 136.132 104.43 141.573 101.169 146.791C98.7089 150.742 96.3421 154.525 100.703 158.327C101.765 159.259 101.448 160.545 100.013 161.216C98.5784 161.887 96.5471 161.7 95.4849 160.768C89.0181 155.122 92.0185 150.295 95.168 145.263C97.7957 141.033 100.554 136.635 95.3917 131.733ZM122.675 131.733C121.687 130.783 122.079 129.497 123.569 128.864C125.06 128.23 127.054 128.491 128.061 129.423C135.105 136.132 131.713 141.573 128.452 146.791C125.992 150.742 123.625 154.525 127.986 158.327C129.048 159.259 128.732 160.545 127.297 161.216C125.862 161.887 123.83 161.7 122.768 160.768C116.301 155.122 119.32 150.295 122.451 145.263C125.079 141.033 127.837 136.635 122.675 131.733Z" fill="black"/>
</g>
<defs>
<clipPath id="clip0_30_704">
<rect width="229" height="229" fill="white"/>
</clipPath>
</defs>
</svg>
