<?xml version="1.0" standalone="no"?>
<!DOCTYPE svg PUBLIC "-//W3C//DTD SVG 20010904//EN"
 "http://www.w3.org/TR/2001/REC-SVG-20010904/DTD/svg10.dtd">
<svg version="1.0" xmlns="http://www.w3.org/2000/svg"
 width="1440.000000pt" height="170.000000pt" viewBox="0 0 1440.000000 170.000000"
 preserveAspectRatio="xMidYMid meet">

<g transform="translate(0.000000,170.000000) scale(0.100000,-0.100000)"
fill="#000000" stroke="none">
<path d="M5310 1040 c0 -29 1 -29 63 -32 l62 -3 -72 -76 c-54 -55 -73 -83 -73
-102 l0 -27 135 0 135 0 0 30 0 30 -75 0 c-41 0 -75 3 -75 8 0 4 32 39 70 77
53 53 70 76 70 97 l0 28 -120 0 -120 0 0 -30z"/>
<path d="M5580 935 l0 -135 40 0 40 0 0 59 c0 39 5 63 15 71 25 20 35 1 35
-66 l0 -64 40 0 40 0 0 83 c0 69 -3 87 -18 100 -22 20 -83 22 -100 5 -9 -9
-12 -2 -12 35 l0 47 -40 0 -40 0 0 -135z"/>
<path d="M6970 935 l0 -135 40 0 40 0 0 135 0 135 -40 0 -40 0 0 -135z"/>
<path d="M7210 900 l0 -170 30 0 30 0 0 170 0 170 -30 0 -30 0 0 -170z"/>
<path d="M7456 1048 c-13 -13 -27 -33 -31 -45 -6 -21 -3 -23 33 -23 30 0 43 6
54 22 9 14 20 19 31 15 31 -12 17 -40 -53 -106 -46 -44 -70 -74 -70 -89 0 -22
2 -22 115 -22 l115 0 0 30 c0 30 0 30 -57 30 l-57 0 54 48 c44 40 53 54 53 82
0 51 -39 80 -108 80 -42 0 -59 -5 -79 -22z"/>
<path d="M7705 1046 c-46 -46 -45 -173 2 -220 21 -22 35 -26 80 -26 43 0 59 5
78 24 45 45 45 172 0 220 -20 22 -33 26 -80 26 -46 0 -60 -4 -80 -24z m93 -34
c28 -18 27 -144 -2 -155 -23 -9 -36 9 -42 59 -6 47 7 104 23 104 5 0 14 -4 21
-8z"/>
<path d="M7956 1048 c-13 -13 -27 -33 -31 -45 -6 -21 -3 -23 33 -23 30 0 43 6
54 22 9 14 20 19 31 15 31 -12 17 -40 -53 -106 -46 -44 -70 -74 -70 -89 0 -22
2 -22 115 -22 l115 0 0 30 c0 30 0 30 -57 30 l-57 0 54 48 c44 40 53 54 53 82
0 51 -39 80 -108 80 -42 0 -59 -5 -79 -22z"/>
<path d="M8231 989 c-52 -60 -71 -90 -71 -110 l0 -29 70 0 c68 0 70 -1 70 -25
0 -22 4 -25 35 -25 31 0 35 3 35 25 0 18 5 25 20 25 16 0 20 7 20 30 0 23 -4
30 -20 30 -18 0 -20 7 -20 80 l0 80 -34 0 c-31 0 -43 -9 -105 -81z m69 -44 c0
-32 -2 -35 -31 -35 l-31 0 29 34 c15 19 29 35 31 35 1 1 2 -15 2 -34z"/>
<path d="M5830 922 c0 -97 14 -122 69 -122 20 0 42 5 49 12 9 9 12 9 12 0 0
-7 16 -12 40 -12 l40 0 0 100 0 100 -40 0 -40 0 0 -59 c0 -39 -5 -63 -15 -71
-25 -20 -35 -1 -35 66 l0 64 -40 0 -40 0 0 -78z"/>
<path d="M6080 900 l0 -100 40 0 40 0 0 51 c0 57 15 93 36 85 14 -6 34 22 34
48 0 19 -50 22 -68 4 -9 -9 -12 -9 -12 0 0 7 -14 12 -35 12 l-35 0 0 -100z"/>
<path d="M6259 982 c-31 -26 -20 -52 24 -52 18 0 38 5 44 11 7 7 20 9 30 5 15
-6 16 -9 3 -15 -8 -5 -33 -12 -55 -16 -70 -12 -98 -61 -57 -98 21 -19 83 -22
113 -7 13 7 19 7 19 0 0 -5 17 -10 38 -10 l37 0 -5 86 c-6 104 -15 114 -106
114 -45 0 -68 -5 -85 -18z m111 -111 c0 -13 -37 -24 -50 -16 -6 4 -8 11 -5 16
8 12 55 12 55 0z"/>
<path d="M6474 983 c4 -10 21 -55 39 -101 l32 -83 39 3 c39 3 39 4 73 83 51
122 50 115 4 115 -40 0 -40 0 -58 -57 l-18 -56 -16 54 c-16 53 -17 54 -59 57
-38 3 -42 1 -36 -15z"/>
<path d="M6739 971 c-23 -23 -29 -38 -29 -71 0 -33 6 -48 29 -71 26 -25 37
-29 85 -29 48 0 60 4 88 31 l33 30 -67 -4 c-50 -3 -71 -1 -79 9 -10 12 1 14
65 14 l76 0 0 31 c0 20 -10 40 -29 60 -26 25 -37 29 -86 29 -49 0 -60 -4 -86
-29z m105 -27 c28 -11 17 -24 -20 -24 -31 0 -35 2 -24 15 14 17 21 18 44 9z"/>
</g>
</svg>
