<svg width="107" height="161" viewBox="0 0 107 161" fill="none" xmlns="http://www.w3.org/2000/svg">
<path d="M67.664 138.505V143.214C67.664 151.036 61.3218 157.378 53.5 157.378C45.6783 157.378 39.3361 151.036 39.3361 143.214V138.505C45.2452 138.505 61.2478 138.505 67.664 138.505Z" fill="white"/>
<path d="M53.1176 3.13502C25.5703 3.33865 3.14549 25.9327 3.13605 53.4833C3.12976 70.7508 11.8139 85.9871 25.0528 95.0662C30.0345 98.4801 33.0376 104.108 33.0376 110.146V110.161H73.9622V110.149C73.9622 104.08 77.0125 98.4584 82.0127 95.0193C95.2111 85.9402 103.864 70.7322 103.864 53.499C103.864 25.5566 81.1101 2.92792 53.1176 3.13502Z" fill="white"/>
<path d="M75.536 110.161C79.8812 110.161 83.4049 113.685 83.4049 118.03C83.4049 122.379 79.8815 125.899 75.536 125.899C68.423 125.899 51.3424 125.899 31.4638 125.899C27.1186 125.899 23.5948 122.376 23.5948 118.03C23.5948 113.682 27.1183 110.161 31.4638 110.161C45.1346 110.161 60.8565 110.161 73.962 110.161H75.536Z" fill="white"/>
<path d="M66.0902 125.899C70.4385 125.899 73.9623 129.423 73.9623 133.768C73.9623 138.115 70.4417 141.64 66.0902 141.64H40.9096C36.5612 141.64 33.0375 138.116 33.0375 133.768C33.0375 129.423 36.5584 125.899 40.9096 125.899H66.0902Z" fill="#CDDCF9"/>
<path d="M64.5164 62.9448V77.1088C64.5164 79.6638 63.6886 82.1467 62.1555 84.1909C60.6536 86.1895 59.7947 88.6714 59.7947 91.273V110.161H47.2044V91.273C47.2044 88.7212 46.3767 86.2351 44.8436 84.1909C43.3238 82.1684 42.4828 79.6874 42.4828 77.1088V62.9448H64.5164Z" fill="#CDDCF9"/>
<path d="M73.9608 113.296H33.0392C31.3078 113.296 29.9041 111.892 29.9041 110.161C29.9041 105.165 27.4281 100.494 23.2812 97.6508C8.69735 87.6517 -0.00597686 71.1398 3.07955e-06 53.4811C0.0103893 24.2086 23.8291 0.218077 53.0956 0.00154067C82.8105 -0.221291 107 23.7557 107 53.5003C107 71.1166 98.3234 87.6032 83.7903 97.602C79.5984 100.486 77.0959 105.176 77.0959 110.148C77.0959 111.879 75.6922 113.296 73.9608 113.296ZM35.9442 107.026H71.0593C71.9343 101.184 75.2273 95.8829 80.2363 92.4366C93.0686 83.6077 100.73 69.0522 100.73 53.5003C100.73 27.2927 79.4221 6.07149 53.1418 6.27166C27.3054 6.46271 6.27894 27.6418 6.2695 53.4833C6.26415 69.0727 13.949 83.6508 26.8263 92.4797C31.806 95.894 35.078 101.183 35.9442 107.026Z" fill="#020E7D"/>
<path d="M75.5349 129.035H31.4652C25.3972 129.035 20.4609 124.098 20.4609 118.03C20.4609 111.962 25.3972 107.026 31.4652 107.026H75.5349C81.6029 107.026 86.5392 111.962 86.5392 118.03C86.5392 124.098 81.6029 129.035 75.5349 129.035ZM31.4652 113.296C28.8545 113.296 26.731 115.42 26.731 118.03C26.731 120.641 28.8548 122.764 31.4652 122.764H75.5349C78.1456 122.764 80.2691 120.641 80.2691 118.03C80.2691 115.42 78.1453 113.296 75.5349 113.296H31.4652Z" fill="#020E7D"/>
<path d="M66.0913 144.774H40.9088C34.8408 144.774 29.9042 139.837 29.9042 133.769C29.9042 127.701 34.8408 122.765 40.9088 122.765H66.0913C72.1594 122.765 77.096 127.701 77.096 133.769C77.096 139.837 72.1594 144.774 66.0913 144.774ZM40.9088 129.035C38.2981 129.035 36.1743 131.159 36.1743 133.769C36.1743 136.38 38.2984 138.504 40.9088 138.504H66.0913C68.702 138.504 70.8258 136.38 70.8258 133.769C70.8258 131.159 68.7017 129.035 66.0913 129.035H40.9088Z" fill="#020E7D"/>
<path d="M53.5 160.513C43.9604 160.513 36.1997 152.752 36.1997 143.213V141.639C36.1997 139.907 37.6034 138.504 39.3348 138.504H67.6649C69.3962 138.504 70.8 139.907 70.8 141.639V143.213C70.8003 152.752 63.0396 160.513 53.5 160.513ZM42.58 144.774C43.3404 150.119 47.9475 154.243 53.5 154.243C59.0525 154.243 63.6593 150.119 64.42 144.774H42.58Z" fill="#020E7D"/>
<path d="M53.5001 50.3388C51.7728 50.3388 50.365 48.9385 50.365 47.2037C50.365 45.4336 51.8115 44.0702 53.4988 44.0702C55.2534 44.0702 56.6351 45.5038 56.6351 47.2037C56.6351 48.8998 55.2585 50.3388 53.5001 50.3388Z" fill="#020E7D"/>
<path d="M60.8464 39.0826C56.6299 35.4352 50.3617 35.4421 46.1534 39.0826C44.8434 40.2154 42.8641 40.0719 41.7314 38.7629C40.5986 37.4536 40.7415 35.4736 42.0511 34.3409C48.625 28.6539 58.388 28.6653 64.9489 34.3409C66.2582 35.4736 66.4014 37.4536 65.2687 38.7629C64.1372 40.0703 62.1582 40.2173 60.8464 39.0826Z" fill="#020E7D"/>
<path d="M67.1878 27.1029C59.3314 20.306 47.6526 20.3195 39.8119 27.1029C38.5026 28.2357 36.5227 28.0928 35.3899 26.7832C34.2572 25.4739 34.4001 23.4939 35.7097 22.3612C45.9231 13.525 61.0971 13.5426 71.2903 22.3612C72.5996 23.4939 72.7428 25.4739 71.6101 26.7832C70.4786 28.0906 68.4999 28.2372 67.1878 27.1029Z" fill="#020E7D"/>
<path d="M59.7957 113.296H47.2041C45.4728 113.296 44.069 111.892 44.069 110.161V91.2737C44.069 89.4098 43.4534 87.5626 42.3352 86.0721C40.4087 83.5029 39.3474 80.3194 39.3474 77.1084V62.9432C39.3474 61.2119 40.7511 59.8082 42.4825 59.8082H64.517C66.2483 59.8082 67.652 61.2119 67.652 62.9432V77.1084C67.652 80.3194 66.5908 83.5029 64.6643 86.0721C63.5463 87.5626 62.9304 89.4098 62.9304 91.2737V110.161C62.9307 111.892 61.527 113.296 59.7957 113.296ZM50.3392 107.026H56.6606V91.274C56.6606 88.0624 57.7219 84.8789 59.6484 82.3104C60.7663 80.8198 61.3822 78.9723 61.3822 77.1088V66.0786H45.6178V77.1088C45.6178 78.9723 46.2335 80.8198 47.3517 82.3104C49.2782 84.8789 50.3395 88.0624 50.3395 91.274L50.3392 107.026Z" fill="#020E7D"/>
</svg>
