<svg width="158" height="158" viewBox="0 0 158 158" fill="none" xmlns="http://www.w3.org/2000/svg">
<path d="M116.031 22.2188C93.5656 7.40625 64.4344 7.40625 41.9688 22.2188V140.719H116.031V22.2188Z" fill="#CFD8DC"/>
<path d="M108.625 26.1688C99.7375 20.9844 89.3687 18.5156 79 18.5156C68.6313 18.5156 58.2625 21.2313 49.375 26.1688V79H108.625V26.1688Z" fill="#CFD8DC"/>
<path d="M54.3125 71.5938V29.1313C61.9656 25.4281 70.3594 23.4531 79 23.4531C87.6406 23.4531 96.0344 25.4281 103.688 29.1313V71.5938H54.3125Z" fill="#81D4FA"/>
<path d="M108.625 79H49.375V133.312H108.625V79Z" fill="#B0BEC5"/>
<path d="M103.688 79H54.3125V128.375H103.688V79Z" fill="#4FC3F7"/>
<path d="M81.4688 23.4531H76.5312V71.5938H81.4688V23.4531Z" fill="#CFD8DC"/>
<path d="M81.4688 79H76.5312V128.375H81.4688V79Z" fill="#CFD8DC"/>
<path d="M120.969 140.719H37.0312V150.594H120.969V140.719Z" fill="#CFD8DC"/>
<path d="M116.031 22.2188V140.719H153.062V11.1094C140.225 11.1094 127.141 14.8125 116.031 22.2188Z" fill="#020E7D"/>
<path d="M41.9688 22.2188C30.8594 14.8125 17.775 11.1094 4.9375 11.1094V140.719H41.9688V22.2188Z" fill="#020E7D"/>
<path d="M37.0312 79H9.875V135.781H37.0312V79Z" fill="#C00606"/>
<path d="M37.0312 24.6875H9.875V74.0625H37.0312V24.6875Z" fill="#C00606"/>
<path d="M148.125 79H120.969V135.781H148.125V79Z" fill="#C00606"/>
<path d="M148.125 24.6875H120.969V74.0625H148.125V24.6875Z" fill="#C00606"/>
</svg>
