<svg width="126" height="126" viewBox="0 0 126 126" fill="none" xmlns="http://www.w3.org/2000/svg">
<path d="M52.5 1.04999C47.25 1.04999 43.05 5.24999 43.05 10.5C43.05 15.75 47.25 19.95 52.5 19.95C57.75 19.95 61.95 15.75 61.95 10.5C61.95 5.24999 57.75 1.04999 52.5 1.04999ZM82.2675 5.24999C82.2675 15.4562 86.3219 25.2444 93.5388 32.4612C100.756 39.6781 110.544 43.7325 120.75 43.7325V36.75C112.396 36.75 104.384 33.4312 98.4761 27.5239C92.5687 21.6165 89.25 13.6043 89.25 5.24999H82.2675ZM96.2325 5.24999C96.2325 18.795 107.205 29.7675 120.75 29.7675V22.7325C111.09 22.7325 103.268 14.91 103.268 5.24999H96.2325ZM110.25 5.24999C110.25 8.03476 111.356 10.7055 113.325 12.6746C115.295 14.6437 117.965 15.75 120.75 15.75V5.24999H110.25ZM41.58 21.1575C40.6875 21.1575 39.795 21.315 38.955 21.5775L10.5 30.45V57.75H19.95V38.4825L31.0275 35.0175L10.5 115.5H19.95L35.0175 72.9225L47.25 89.25V115.5H56.7V81.8475L43.6275 58.0125L47.46 42.945L53.13 52.5H78.75V43.05H59.745L49.245 25.5675C47.67 22.9425 44.835 21.1575 41.58 21.1575Z" fill="#020E7D"/>
</svg>
