<svg width="191" height="191" viewBox="0 0 191 191" fill="none" xmlns="http://www.w3.org/2000/svg">
<g clip-path="url(#clip0_44_159)">
<path d="M191 0H0V191H191V0Z" fill="white"/>
<path d="M134.834 135.043C134.696 135.043 134.556 135.041 134.416 135.034C130.331 134.819 127.114 131.368 126.985 127.123L122.878 127.194C122.878 131.659 119.134 135.243 114.609 135.034C110.524 134.819 107.307 131.368 107.178 127.123L103.071 127.194C103.071 131.659 99.3032 135.243 94.8006 135.034C90.7156 134.819 87.4981 131.368 87.3695 127.123L83.2622 127.194C83.2622 131.659 79.5018 135.243 74.9918 135.034C70.9087 134.819 67.6912 131.368 67.5624 127.123L63.4554 127.194C63.4554 131.659 59.7024 135.243 55.1849 135.034C51.0161 134.815 47.75 131.225 47.75 126.858V63.8097C47.75 59.3407 51.4917 55.7071 56.0205 55.9664C60.1054 56.1809 63.3228 59.6335 63.4515 63.8805L67.5588 63.8097C67.5588 59.3407 71.293 55.7071 75.8293 55.9664C79.9123 56.1809 83.1297 59.6335 83.2584 63.8805L87.3657 63.8097C87.3657 59.3407 91.0944 55.7071 95.6362 55.9664C99.7211 56.1809 102.938 59.6335 103.067 63.8805L107.174 63.8097C107.174 59.3407 110.894 55.7071 115.443 55.9664C119.528 56.1809 122.745 59.6335 122.874 63.8805L126.981 63.8097C126.981 59.3407 130.725 55.7071 135.252 55.9664C139.421 56.1846 142.687 59.7771 142.687 64.1454V127.194C142.687 129.291 141.87 131.262 140.387 132.745C138.904 134.228 136.932 135.043 134.834 135.043ZM120.968 123.303H128.891C129.947 123.303 130.801 124.157 130.801 125.213V126.858C130.801 129.152 132.512 131.107 134.614 131.217L134.834 131.223C135.912 131.223 136.925 130.805 137.686 130.044C138.447 129.283 138.867 128.27 138.867 127.194V64.1454C138.867 61.8492 137.156 59.8907 135.054 59.7826L134.834 59.7771C132.611 59.7771 130.801 61.5862 130.801 63.8097V65.7905C130.801 66.8462 129.947 67.7005 128.891 67.7005H120.968C119.912 67.7005 119.058 66.8462 119.058 65.7905V64.1454C119.058 61.8492 117.348 59.8907 115.245 59.7826L115.025 59.7771C112.802 59.7771 110.994 61.5862 110.994 63.8097V65.7905C110.994 66.8462 110.14 67.7005 109.084 67.7005H101.161C100.105 67.7005 99.2511 66.8462 99.2511 65.7905V64.1454C99.2511 61.8492 97.5406 59.8907 95.4385 59.7826L95.2183 59.7771C92.995 59.7771 91.1857 61.5862 91.1857 63.8097V65.7905C91.1857 66.8462 90.3313 67.7005 89.2757 67.7005H81.3522C80.2964 67.7005 79.4422 66.8462 79.4422 65.7905V64.1454C79.4422 61.8492 77.7318 59.8907 75.6316 59.7826L75.4114 59.7771C73.1881 59.7771 71.3788 61.5862 71.3788 63.8097V65.7905C71.3788 66.8462 70.5245 67.7005 69.4688 67.7005H61.5454C60.4895 67.7005 59.6354 66.8462 59.6354 65.7905V64.1454C59.6354 61.8492 57.9248 59.8907 55.8228 59.7826L55.6026 59.7771C53.3793 59.7771 51.57 61.5862 51.57 63.8097V126.858C51.57 129.152 53.2804 131.109 55.3826 131.217L55.6026 131.223C57.826 131.223 59.6354 129.415 59.6354 127.194V125.213C59.6354 124.157 60.4895 123.303 61.5454 123.303H69.4688C70.5245 123.303 71.3788 124.157 71.3788 125.213V126.858C71.3788 129.152 73.0892 131.109 75.1894 131.217L75.4095 131.223C77.6329 131.223 79.4422 129.415 79.4422 127.194V125.213C79.4422 124.157 80.2964 123.303 81.3522 123.303H89.2757C90.3313 123.303 91.1857 124.157 91.1857 125.213V126.858C91.1857 129.152 92.8961 131.109 94.9982 131.217L95.2183 131.223C97.4417 131.223 99.2511 129.415 99.2511 127.194V125.213C99.2511 124.157 100.105 123.303 101.161 123.303H109.084C110.14 123.303 110.994 124.157 110.994 125.213V126.858C110.994 129.152 112.705 131.109 114.807 131.217L115.027 131.223C117.251 131.223 119.058 129.415 119.058 127.194V125.213C119.058 124.157 119.912 123.303 120.968 123.303Z" fill="#020E7D"/>
<path d="M61.5453 127.123C60.4894 127.123 59.6353 126.269 59.6353 125.213V65.7905C59.6353 64.7349 60.4894 63.8805 61.5453 63.8805C62.6009 63.8805 63.4553 64.7349 63.4553 65.7905V125.213C63.4553 126.269 62.6009 127.123 61.5453 127.123Z" fill="#020E7D"/>
<path d="M81.3524 127.123C80.2965 127.123 79.4424 126.269 79.4424 125.213V65.7905C79.4424 64.7349 80.2965 63.8805 81.3524 63.8805C82.408 63.8805 83.2624 64.7349 83.2624 65.7905V125.213C83.2624 126.269 82.408 127.123 81.3524 127.123Z" fill="#020E7D"/>
<path d="M101.161 127.123C100.105 127.123 99.251 126.269 99.251 125.213V65.7905C99.251 64.7349 100.105 63.8805 101.161 63.8805C102.217 63.8805 103.071 64.7349 103.071 65.7905V125.213C103.071 126.269 102.217 127.123 101.161 127.123Z" fill="#020E7D"/>
<path d="M120.968 127.123C119.912 127.123 119.058 126.269 119.058 125.213V65.7905C119.058 64.7349 119.912 63.8805 120.968 63.8805C122.024 63.8805 122.878 64.7349 122.878 65.7905V125.213C122.878 126.269 122.024 127.123 120.968 127.123Z" fill="#020E7D"/>
<path d="M152.662 78.2466H148.7C147.644 78.2466 146.79 77.3922 146.79 76.3366V68.4131C146.79 67.3573 147.644 66.5031 148.7 66.5031H152.662C155.898 66.5031 158.53 69.1368 158.53 72.3749C158.53 75.6129 155.898 78.2466 152.662 78.2466ZM150.61 74.4266H152.662C153.79 74.4266 154.71 73.5071 154.71 72.3749C154.71 71.2426 153.79 70.3231 152.662 70.3231H150.61V74.4266Z" fill="#020E7D"/>
<path d="M148.7 74.2849H141.717C140.661 74.2849 139.807 73.4305 139.807 72.3749C139.807 71.319 140.661 70.4649 141.717 70.4649H148.7C149.756 70.4649 150.61 71.319 150.61 72.3749C150.61 73.4305 149.756 74.2849 148.7 74.2849Z" fill="#020E7D"/>
<path d="M69.4686 128.768C68.4129 128.768 67.5586 127.914 67.5586 126.858V63.8097C67.5586 62.754 68.4129 61.8997 69.4686 61.8997C70.5243 61.8997 71.3786 62.754 71.3786 63.8097V126.858C71.3786 127.914 70.5243 128.768 69.4686 128.768Z" fill="#020E7D"/>
<path d="M89.2757 127.123C88.2201 127.123 87.3657 126.269 87.3657 125.213V65.7905C87.3657 64.7349 88.2201 63.8805 89.2757 63.8805C90.3314 63.8805 91.1857 64.7349 91.1857 65.7905V125.213C91.1857 126.269 90.3314 127.123 89.2757 127.123Z" fill="#020E7D"/>
<path d="M109.084 127.123C108.029 127.123 107.174 126.269 107.174 125.213V65.7905C107.174 64.7349 108.029 63.8805 109.084 63.8805C110.14 63.8805 110.994 64.7349 110.994 65.7905V125.213C110.994 126.269 110.14 127.123 109.084 127.123Z" fill="#020E7D"/>
<path d="M128.891 128.768C127.836 128.768 126.981 127.914 126.981 126.858V65.7905C126.981 64.7349 127.836 63.8805 128.891 63.8805C129.947 63.8805 130.801 64.7349 130.801 65.7905V126.858C130.801 127.914 129.947 128.768 128.891 128.768Z" fill="#020E7D"/>
<path d="M55.39 124.15C54.3343 124.15 53.48 123.296 53.48 122.24V68.76C53.48 67.7043 54.3343 66.85 55.39 66.85C56.4456 66.85 57.3 67.7043 57.3 68.76V122.24C57.3 123.296 56.4456 124.15 55.39 124.15Z" fill="#020E7D"/>
<path d="M75.3016 124.15C74.2459 124.15 73.3916 123.296 73.3916 122.24V68.76C73.3916 67.7043 74.2459 66.85 75.3016 66.85C76.3573 66.85 77.2116 67.7043 77.2116 68.76V122.24C77.2116 123.296 76.3573 124.15 75.3016 124.15Z" fill="#020E7D"/>
<path d="M95.2127 124.15C94.1571 124.15 93.3027 123.296 93.3027 122.24V68.76C93.3027 67.7043 94.1571 66.85 95.2127 66.85C96.2684 66.85 97.1227 67.7043 97.1227 68.76V122.24C97.1227 123.296 96.2684 124.15 95.2127 124.15Z" fill="#020E7D"/>
<path d="M115.126 123.982C114.07 123.982 113.216 123.128 113.216 122.072V68.5921C113.216 67.5365 114.07 66.6821 115.126 66.6821C116.181 66.6821 117.036 67.5365 117.036 68.5921V122.072C117.036 123.128 116.181 123.982 115.126 123.982Z" fill="#020E7D"/>
<path d="M135.037 123.982C133.982 123.982 133.127 123.128 133.127 122.072V68.5921C133.127 67.5365 133.982 66.6821 135.037 66.6821C136.093 66.6821 136.947 67.5365 136.947 68.5921V122.072C136.947 123.128 136.093 123.982 135.037 123.982Z" fill="#020E7D"/>
</g>
<defs>
<clipPath id="clip0_44_159">
<rect width="191" height="191" fill="white"/>
</clipPath>
</defs>
</svg>
