<svg width="237" height="188" viewBox="0 0 237 188" fill="none" xmlns="http://www.w3.org/2000/svg">
<g clip-path="url(#clip0_30_710)">
<path d="M232.691 46.1454H224.073V39.3022C224.073 31.7686 216.342 25.6364 206.836 25.6364C197.331 25.6364 189.6 31.7686 189.6 39.3022V46.1454H180.982V39.3022C180.982 31.7686 173.251 25.6364 163.745 25.6364C154.24 25.6364 146.509 31.7686 146.509 39.3022V46.1454H137.891V39.3022C137.891 31.7686 130.16 25.6364 120.655 25.6364C111.149 25.6364 103.418 31.7686 103.418 39.3022V46.1454H94.8V39.3022C94.8 31.7686 87.0695 25.6364 77.5636 25.6364C68.0578 25.6364 60.3273 31.7686 60.3273 39.3022V46.1454H51.7091V39.3022C51.7091 31.7686 43.9786 25.6364 34.4727 25.6364C24.9669 25.6364 17.2364 31.7686 17.2364 39.3022V46.1454H8.61818V42.7273H0V49.5636V70.0727V76.9091H8.61818V73.4909H17.2364V148.698C17.2364 156.231 24.9669 162.364 34.4727 162.364C43.9786 162.364 51.7091 156.231 51.7091 148.698V145.273H60.3273V148.698C60.3273 156.231 68.0578 162.364 77.5636 162.364C87.0695 162.364 94.8 156.231 94.8 148.698V145.273H103.418V148.698C103.418 156.231 111.149 162.364 120.655 162.364C130.16 162.364 137.891 156.231 137.891 148.698V145.273H146.509V148.698C146.509 156.231 154.24 162.364 163.745 162.364C173.251 162.364 180.982 156.231 180.982 148.698V145.273H189.6V148.698C189.6 156.231 197.331 162.364 206.836 162.364C216.342 162.364 224.073 156.231 224.073 148.698V73.4909H232.691C235.074 73.4909 237 71.963 237 70.0727V49.5636C237 47.6734 235.074 46.1454 232.691 46.1454ZM189.6 52.9818V66.6545H180.982V52.9818H189.6ZM146.509 52.9818V66.6545H137.891V52.9818H146.509ZM103.418 52.9818V66.6545H94.8V52.9818H103.418ZM60.3273 52.9818V66.6545H51.7091V52.9818H60.3273ZM8.61818 66.6545V52.9818H17.2364V66.6545H8.61818ZM43.0909 148.698C43.0909 152.465 39.2213 155.527 34.4727 155.527C29.7241 155.527 25.8545 152.465 25.8545 148.698V70.0727V49.5636V39.3022C25.8545 35.5354 29.7241 32.4727 34.4727 32.4727C39.2213 32.4727 43.0909 35.5354 43.0909 39.3022V49.5636V70.0727V138.436V145.273V148.698ZM51.7091 138.436V73.4909H60.3273V138.436H51.7091ZM86.1818 148.698C86.1818 152.465 82.3166 155.527 77.5636 155.527C72.8107 155.527 68.9455 152.465 68.9455 148.698V70.0727V49.5636V39.3022C68.9455 35.5354 72.8107 32.4727 77.5636 32.4727C82.3166 32.4727 86.1818 35.5354 86.1818 39.3022V49.5636V70.0727V148.698ZM94.8 138.436V73.4909H103.418V138.436H94.8ZM129.273 148.698C129.273 152.465 125.407 155.527 120.655 155.527C115.902 155.527 112.036 152.465 112.036 148.698V145.273V138.436V70.0727V49.5636V39.3022C112.036 35.5354 115.902 32.4727 120.655 32.4727C125.407 32.4727 129.273 35.5354 129.273 39.3022V49.5636V70.0727V138.436V145.273V148.698ZM137.891 138.436V73.4909H146.509V138.436H137.891ZM172.364 148.698C172.364 152.465 168.498 155.527 163.745 155.527C158.993 155.527 155.127 152.465 155.127 148.698V70.0727V49.5636V39.3022C155.127 35.5354 158.993 32.4727 163.745 32.4727C168.498 32.4727 172.364 35.5354 172.364 39.3022V49.5636V70.0727V138.436V145.273V148.698ZM180.982 138.436V73.4909H189.6V138.436H180.982ZM215.455 148.698C215.455 152.465 211.589 155.527 206.836 155.527C202.083 155.527 198.218 152.465 198.218 148.698V70.0727V49.5636V39.3022C198.218 35.5354 202.083 32.4727 206.836 32.4727C211.589 32.4727 215.455 35.5354 215.455 39.3022V49.5636V70.0727V148.698ZM228.382 66.6545H224.073V52.9818H228.382V66.6545Z" fill="black"/>
</g>
<defs>
<clipPath id="clip0_30_710">
<rect width="237" height="188" fill="white"/>
</clipPath>
</defs>
</svg>
