<svg width="48" height="48" viewBox="0 0 48 48" fill="none" xmlns="http://www.w3.org/2000/svg">
<g clip-path="url(#clip0_11_196)">
<path d="M38.1375 8.475C36.7875 10.3875 34.1625 10.8375 32.25 9.525C30.3375 8.2125 29.8875 5.55 31.2 3.6375C32.55 1.725 35.175 1.275 37.0875 2.5875C39 3.9 39.4875 6.5625 38.1375 8.475ZM47.6625 13.1625L42.7125 20.2875C42.15 21.15 40.9875 21.3375 40.125 20.775L33 15.825L25.3875 27.1125L31.875 31.65C32.4375 32.025 32.8875 32.6625 33 33.3375L34.8375 43.725C35.0625 45.15 34.0875 46.5375 32.6625 46.8C31.2375 47.025 29.85 46.05 29.5875 44.625L27.9375 35.2875L19.7625 29.475C19.7625 29.475 15.45 35.7 15.15 36.075C14.85 36.45 14.5875 36.975 14.1 37.2375C13.4625 37.6125 12.7125 37.65 12.075 37.5L1.87501 34.7625C0.48751 34.3875 -0.337491 32.9625 0.0375093 31.5375C0.412509 30.15 1.83751 29.325 3.26251 29.7L11.625 31.9125L24.975 12.525H19.8375L15.45 18.825C14.8875 19.6875 13.725 19.875 12.8625 19.3125C12 18.75 11.8125 17.5875 12.375 16.725L17.325 9.6375C17.7 9.075 18.3375 8.775 18.975 8.85H27.525C28.8 8.85 30.075 9.225 31.1625 10.0125L33.9 11.9625L40.65 16.725L44.625 11.1C45.1875 10.2375 46.35 10.05 47.2125 10.6125C48.075 11.175 48.2625 12.375 47.6625 13.1625Z" fill="black"/>
</g>
<defs>
<clipPath id="clip0_11_196">
<rect width="48" height="48" fill="white"/>
</clipPath>
</defs>
</svg>
