<svg width="223" height="223" viewBox="0 0 223 223" fill="none" xmlns="http://www.w3.org/2000/svg">
<path d="M111.5 118.469C107.319 118.469 104.531 121.256 104.531 125.438V139.375C104.531 143.556 107.319 146.344 111.5 146.344C115.681 146.344 118.469 143.556 118.469 139.375V125.438C118.469 121.256 115.681 118.469 111.5 118.469Z" fill="black"/>
<path d="M111.5 69.6875C99.6531 69.6875 90.5938 78.7469 90.5938 90.5938V97.5625H132.406V90.5938C132.406 78.7469 123.347 69.6875 111.5 69.6875Z" fill="black"/>
<path d="M219.516 85.7156C218.819 82.2313 215.334 80.1406 211.85 80.1406C201.397 81.5344 191.641 76.6563 186.762 67.5969C181.884 58.5375 182.581 48.0844 188.853 39.7219C190.944 36.9344 190.944 32.7531 188.156 30.6625C175.613 18.8156 159.584 9.75626 142.859 4.87814C139.375 4.18126 135.891 5.57501 134.497 9.05939C130.316 18.8156 121.256 24.3906 111.5 24.3906C101.744 24.3906 91.9875 18.1188 88.5031 9.05939C87.1094 5.57501 83.625 4.18126 80.1406 4.87814C63.4156 9.75626 47.3875 18.8156 34.8438 30.6625C32.0563 33.45 32.0563 36.9344 34.1469 39.7219C40.4188 48.0844 41.1156 58.5375 36.2375 67.5969C31.3594 76.6563 21.6031 81.5344 11.15 80.1406C7.66563 79.4438 4.18125 82.2313 3.48438 85.7156C1.39375 94.0781 0 103.138 0 111.5C0 119.863 1.39375 128.922 3.48438 137.284C4.18125 140.769 7.66563 142.859 11.15 142.859C20.9062 141.466 30.6625 146.344 35.5406 155.403C40.4188 164.463 39.7219 174.916 33.45 183.278C31.3594 186.066 31.3594 190.247 34.1469 192.338C46.6906 204.184 62.7187 213.244 79.4437 218.122C82.9281 218.819 86.4125 217.425 87.8063 213.941C91.9875 204.184 101.047 198.609 110.803 198.609C120.559 198.609 130.316 204.881 133.8 213.941C135.194 216.728 137.284 218.122 140.072 218.122C140.769 218.122 141.466 218.122 142.162 218.122C158.887 213.244 174.219 204.184 187.459 192.338C190.247 189.55 190.247 186.066 188.156 183.278C181.884 174.916 181.188 164.463 186.066 155.403C190.944 146.344 200.7 141.466 211.153 142.859C214.637 143.556 218.122 140.769 218.819 137.284C220.909 128.225 222.303 119.863 222.303 111.5C222.303 103.138 221.606 94.0781 219.516 85.7156ZM153.312 146.344C153.312 158.191 144.253 167.25 132.406 167.25H90.5938C78.7469 167.25 69.6875 158.191 69.6875 146.344V118.469C69.6875 112.197 72.475 106.622 76.6562 103.138V90.5938C76.6562 71.0813 91.9875 55.75 111.5 55.75C131.012 55.75 146.344 71.0813 146.344 90.5938V103.138C150.525 106.622 153.312 112.197 153.312 118.469V146.344Z" fill="black"/>
</svg>
