<svg width="277" height="277" viewBox="0 0 277 277" fill="none" xmlns="http://www.w3.org/2000/svg">
<g filter="url(#filter0_d_11_171)">
<path d="M47.2439 145.425L85.5238 166.854L98.412 162.699L42.7427 131.498L47.2439 145.425Z" fill="black"/>
<path d="M225.832 174.01V181.358H195.054L157.274 143.578L231.295 119.649C232.151 119.374 232.944 118.932 233.628 118.35C234.313 117.767 234.875 117.054 235.283 116.253C235.691 115.452 235.936 114.578 236.004 113.682C236.072 112.786 235.962 111.885 235.681 111.031L221.254 66.4031C220.69 64.6704 219.462 63.232 217.839 62.4027C216.217 61.5735 214.332 61.421 212.597 61.9788L45.0124 116.263C43.9112 116.616 42.9173 117.242 42.1235 118.083C41.3297 118.924 40.7618 119.952 40.4727 121.072L108.722 159.544L140.154 149.349L188.514 197.555H225.832V202.595C225.819 205.652 226.885 208.616 228.841 210.966C230.797 213.316 233.518 214.902 236.527 215.444V161.237C233.528 161.77 230.812 163.343 228.857 165.678C226.901 168.014 225.83 170.964 225.832 174.01ZM155.274 94.4493C154.581 92.3333 155.274 90.2558 156.466 89.8326L205.057 74.136C206.403 73.7128 208.019 75.0593 208.904 77.1368C209.789 79.2143 208.904 81.3303 207.711 81.7535L158.929 97.4501C157.736 97.9118 155.966 96.5268 155.274 94.4493Z" fill="black"/>
</g>
<defs>
<filter id="filter0_d_11_171" x="-4" y="0" width="285" height="285" filterUnits="userSpaceOnUse" color-interpolation-filters="sRGB">
<feFlood flood-opacity="0" result="BackgroundImageFix"/>
<feColorMatrix in="SourceAlpha" type="matrix" values="0 0 0 0 0 0 0 0 0 0 0 0 0 0 0 0 0 0 127 0" result="hardAlpha"/>
<feOffset dy="4"/>
<feGaussianBlur stdDeviation="2"/>
<feComposite in2="hardAlpha" operator="out"/>
<feColorMatrix type="matrix" values="0 0 0 0 0 0 0 0 0 0 0 0 0 0 0 0 0 0 0.25 0"/>
<feBlend mode="normal" in2="BackgroundImageFix" result="effect1_dropShadow_11_171"/>
<feBlend mode="normal" in="SourceGraphic" in2="effect1_dropShadow_11_171" result="shape"/>
</filter>
</defs>
</svg>
