<svg width="121" height="121" viewBox="0 0 121 121" fill="none" xmlns="http://www.w3.org/2000/svg">
<path d="M75.3887 121C88.4407 121 99.0215 110.419 99.0215 97.3672C99.0215 84.3151 88.4407 73.7344 75.3887 73.7344C62.3366 73.7344 51.7559 84.3151 51.7559 97.3672C51.7559 110.419 62.3366 121 75.3887 121Z" fill="#DDDDDD"/>
<path d="M75.3887 0C78.3972 0 81.2826 1.19514 83.4099 3.32251C85.5373 5.44987 86.7324 8.3352 86.7324 11.3438V100.912H64.0449V11.3438C64.0449 8.3352 65.2401 5.44987 67.3674 3.32251C69.4948 1.19514 72.3801 0 75.3887 0Z" fill="#DDDDDD"/>
<path d="M67.3535 97.6035V11.4806C67.3535 7.49893 70.5775 3.76187 74.5379 3.35255C75.6583 3.23469 76.791 3.35349 77.8627 3.70127C78.9343 4.04905 79.9209 4.61804 80.7586 5.37139C81.5963 6.12475 82.2664 7.04566 82.7255 8.07449C83.1847 9.10332 83.4226 10.2171 83.4238 11.3438V97.6035H67.3535Z" fill="#D7F7F7"/>
<path d="M83.4238 21.5059V83.6696C83.4238 86.5436 80.1998 89.2411 76.2395 89.5365C71.429 89.8952 67.3535 87.1689 67.3535 83.7686V21.5059H83.4238Z" fill="#C00606"/>
<path d="M75.3887 117.691C86.6134 117.691 95.7129 108.592 95.7129 97.3672C95.7129 86.1424 86.6134 77.043 75.3887 77.043C64.1639 77.043 55.0645 86.1424 55.0645 97.3672C55.0645 108.592 64.1639 117.691 75.3887 117.691Z" fill="#C00606"/>
<path d="M67.3535 14.416H74.207C74.5204 14.416 74.821 14.5405 75.0426 14.7621C75.2642 14.9837 75.3887 15.2843 75.3887 15.5977C75.3887 15.911 75.2642 16.2116 75.0426 16.4332C74.821 16.6548 74.5204 16.7793 74.207 16.7793H67.3535V14.416Z" fill="#DDDDDD"/>
<path d="M67.3535 21.5059H70.1895C70.5028 21.5059 70.8034 21.6304 71.025 21.852C71.2466 22.0736 71.3711 22.3741 71.3711 22.6875C71.3711 23.0009 71.2466 23.3014 71.025 23.523C70.8034 23.7446 70.5028 23.8691 70.1895 23.8691H67.3535V21.5059Z" fill="#DDDDDD"/>
<path d="M67.3535 28.5957H74.207C74.5204 28.5957 74.821 28.7202 75.0426 28.9418C75.2642 29.1634 75.3887 29.464 75.3887 29.7773C75.3887 30.0907 75.2642 30.3913 75.0426 30.6129C74.821 30.8345 74.5204 30.959 74.207 30.959H67.3535V28.5957Z" fill="#DDDDDD"/>
<path d="M67.3535 35.6855H70.1895C70.5028 35.6855 70.8034 35.81 71.025 36.0316C71.2466 36.2532 71.3711 36.5538 71.3711 36.8672C71.3711 37.1806 71.2466 37.4811 71.025 37.7027C70.8034 37.9243 70.5028 38.0488 70.1895 38.0488H67.3535V35.6855Z" fill="#DDDDDD"/>
<path d="M67.3535 42.7754H74.207C74.5204 42.7754 74.821 42.8999 75.0426 43.1215C75.2642 43.3431 75.3887 43.6436 75.3887 43.957C75.3887 44.2704 75.2642 44.571 75.0426 44.7926C74.821 45.0142 74.5204 45.1387 74.207 45.1387H67.3535V42.7754Z" fill="#DDDDDD"/>
<path d="M67.3535 49.8652H70.1895C70.5028 49.8652 70.8034 49.9897 71.025 50.2113C71.2466 50.4329 71.3711 50.7335 71.3711 51.0469C71.3711 51.3603 71.2466 51.6608 71.025 51.8824C70.8034 52.104 70.5028 52.2285 70.1895 52.2285H67.3535V49.8652Z" fill="#DDDDDD"/>
<path d="M67.3535 56.9551H74.207C74.5204 56.9551 74.821 57.0796 75.0426 57.3012C75.2642 57.5228 75.3887 57.8233 75.3887 58.1367C75.3887 58.4501 75.2642 58.7507 75.0426 58.9723C74.821 59.1939 74.5204 59.3184 74.207 59.3184H67.3535V56.9551Z" fill="#DDDDDD"/>
<path d="M67.3535 71.1348H74.207C74.5204 71.1348 74.821 71.2593 75.0426 71.4809C75.2642 71.7025 75.3887 72.003 75.3887 72.3164C75.3887 72.6298 75.2642 72.9303 75.0426 73.1519C74.821 73.3736 74.5204 73.498 74.207 73.498H67.3535V71.1348Z" fill="#DDDDDD"/>
<path d="M67.3535 64.0449H70.1895C70.5028 64.0449 70.8034 64.1694 71.025 64.391C71.2466 64.6126 71.3711 64.9132 71.3711 65.2266C71.3711 65.54 71.2466 65.8405 71.025 66.0621C70.8034 66.2837 70.5028 66.4082 70.1895 66.4082H67.3535V64.0449Z" fill="#DDDDDD"/>
<path d="M66.6445 14.416H73.498C73.8114 14.416 74.112 14.5405 74.3336 14.7621C74.5552 14.9837 74.6797 15.2843 74.6797 15.5977C74.6797 15.911 74.5552 16.2116 74.3336 16.4332C74.112 16.6548 73.8114 16.7793 73.498 16.7793H66.6445V14.416Z" fill="#DDDDDD"/>
<path d="M66.6445 21.5059H69.4805C69.7939 21.5059 70.0944 21.6304 70.316 21.852C70.5376 22.0736 70.6621 22.3741 70.6621 22.6875C70.6621 23.0009 70.5376 23.3014 70.316 23.523C70.0944 23.7446 69.7939 23.8691 69.4805 23.8691H66.6445V21.5059Z" fill="#DDDDDD"/>
<path d="M66.6445 28.5957H73.498C73.8114 28.5957 74.112 28.7202 74.3336 28.9418C74.5552 29.1634 74.6797 29.464 74.6797 29.7773C74.6797 30.0907 74.5552 30.3913 74.3336 30.6129C74.112 30.8345 73.8114 30.959 73.498 30.959H66.6445V28.5957Z" fill="#DDDDDD"/>
<path d="M66.6445 35.6855H69.4805C69.7939 35.6855 70.0944 35.81 70.316 36.0316C70.5376 36.2532 70.6621 36.5538 70.6621 36.8672C70.6621 37.1806 70.5376 37.4811 70.316 37.7027C70.0944 37.9243 69.7939 38.0488 69.4805 38.0488H66.6445V35.6855Z" fill="#DDDDDD"/>
<path d="M66.6445 42.7754H73.498C73.8114 42.7754 74.112 42.8999 74.3336 43.1215C74.5552 43.3431 74.6797 43.6436 74.6797 43.957C74.6797 44.2704 74.5552 44.571 74.3336 44.7926C74.112 45.0142 73.8114 45.1387 73.498 45.1387H66.6445V42.7754Z" fill="#DDDDDD"/>
<path d="M66.6445 49.8652H69.4805C69.7939 49.8652 70.0944 49.9897 70.316 50.2113C70.5376 50.4329 70.6621 50.7335 70.6621 51.0469C70.6621 51.3603 70.5376 51.6608 70.316 51.8824C70.0944 52.104 69.7939 52.2285 69.4805 52.2285H66.6445V49.8652Z" fill="#DDDDDD"/>
<path d="M66.6445 56.9551H73.498C73.8114 56.9551 74.112 57.0796 74.3336 57.3012C74.5552 57.5228 74.6797 57.8233 74.6797 58.1367C74.6797 58.4501 74.5552 58.7507 74.3336 58.9723C74.112 59.1939 73.8114 59.3184 73.498 59.3184H66.6445V56.9551Z" fill="#DDDDDD"/>
<path d="M66.6445 71.1348H73.498C73.8114 71.1348 74.112 71.2593 74.3336 71.4809C74.5552 71.7025 74.6797 72.003 74.6797 72.3164C74.6797 72.6298 74.5552 72.9303 74.3336 73.1519C74.112 73.3736 73.8114 73.498 73.498 73.498H66.6445V71.1348Z" fill="#DDDDDD"/>
<path d="M66.6445 64.0449H69.4805C69.7939 64.0449 70.0944 64.1694 70.316 64.391C70.5376 64.6126 70.6621 64.9132 70.6621 65.2266C70.6621 65.54 70.5376 65.8405 70.316 66.0621C70.0944 66.2837 69.7939 66.4082 69.4805 66.4082H66.6445V64.0449Z" fill="#DDDDDD"/>
<path d="M38.5217 71.8088C44.7673 71.8088 49.8304 66.7457 49.8304 60.5C49.8304 54.2543 44.7673 49.1912 38.5217 49.1912C32.276 49.1912 27.2129 54.2543 27.2129 60.5C27.2129 66.7457 32.276 71.8088 38.5217 71.8088Z" fill="#4E7AB5"/>
<path d="M38.5218 43.957H38.5216C38.1648 43.957 37.8755 44.2463 37.8755 44.6032V47.1881C37.8755 47.545 38.1648 47.8342 38.5216 47.8342H38.5218C38.8787 47.8342 39.168 47.545 39.168 47.1881V44.6032C39.168 44.2463 38.8787 43.957 38.5218 43.957Z" fill="#4E7AB5"/>
<path d="M26.8242 48.8022L26.8241 48.8023C26.5717 49.0547 26.5717 49.4638 26.8241 49.7161L28.6519 51.5439C28.9042 51.7963 29.3133 51.7963 29.5657 51.5439L29.5658 51.5438C29.8181 51.2914 29.8182 50.8823 29.5658 50.63L27.738 48.8022C27.4857 48.5498 27.0766 48.5498 26.8242 48.8022Z" fill="#4E7AB5"/>
<path d="M21.9785 60.4998V60.5C21.9785 60.8568 22.2678 61.1461 22.6246 61.1461H25.2096C25.5664 61.1461 25.8557 60.8568 25.8557 60.5V60.4998C25.8557 60.1429 25.5664 59.8536 25.2096 59.8536H22.6246C22.2678 59.8536 21.9785 60.1429 21.9785 60.4998Z" fill="#4E7AB5"/>
<path d="M26.8237 72.1975L26.8239 72.1977C27.0762 72.45 27.4853 72.45 27.7376 72.1977L29.5655 70.3699C29.8178 70.1175 29.8178 69.7084 29.5655 69.4561L29.5653 69.4559C29.313 69.2036 28.9039 69.2036 28.6516 69.4559L26.8237 71.2838C26.5714 71.5361 26.5714 71.9452 26.8237 72.1975Z" fill="#4E7AB5"/>
<path d="M38.5211 77.043H38.5214C38.8782 77.043 39.1675 76.7537 39.1675 76.3968V73.8119C39.1675 73.455 38.8782 73.1658 38.5214 73.1658H38.5211C38.1643 73.1658 37.875 73.455 37.875 73.8119V76.3968C37.875 76.7537 38.1643 77.043 38.5211 77.043Z" fill="#4E7AB5"/>
<path d="M50.2192 72.1978L50.2194 72.1976C50.4717 71.9453 50.4717 71.5362 50.2194 71.2839L48.3916 69.456C48.1392 69.2037 47.7301 69.2037 47.4778 69.456L47.4776 69.4562C47.2253 69.7085 47.2253 70.1176 47.4776 70.37L49.3055 72.1978C49.5578 72.4501 49.9669 72.4501 50.2192 72.1978Z" fill="#4E7AB5"/>
<path d="M55.0645 60.5V60.4998C55.0645 60.1429 54.7752 59.8536 54.4183 59.8536H51.8334C51.4765 59.8536 51.1873 60.1429 51.1873 60.4998V60.5C51.1873 60.8568 51.4765 61.1461 51.8334 61.1461H54.4183C54.7752 61.1461 55.0645 60.8568 55.0645 60.5Z" fill="#4E7AB5"/>
<path d="M50.2193 48.8025L50.2191 48.8023C49.9668 48.55 49.5577 48.55 49.3053 48.8023L47.4775 50.6301C47.2252 50.8825 47.2252 51.2916 47.4775 51.5439L47.4777 51.5441C47.73 51.7964 48.1391 51.7964 48.3914 51.5441L50.2193 49.7162C50.4716 49.4639 50.4716 49.0548 50.2193 48.8025Z" fill="#4E7AB5"/>
</svg>
