<svg width="80" height="80" viewBox="0 0 80 80" fill="none" xmlns="http://www.w3.org/2000/svg">
<path d="M58 18.5C69.855 18.5 79.5 28.145 79.5 40C79.5 51.855 69.855 61.5 58 61.5L22 61.5C10.145 61.5 0.500001 51.855 0.500002 40C0.500003 28.145 10.145 18.5 22 18.5L58 18.5Z" fill="#C00606"/>
<path d="M22 61C10.421 61 1 51.579 1 40C1 28.421 10.421 19 22 19L58 19C69.579 19 79 28.421 79 40C79 51.579 69.579 61 58 61L22 61ZM22 62L58 62C70.15 62 80 52.15 80 40C80 27.85 70.15 18 58 18L22 18C9.85 18 2.98549e-06 27.85 1.9233e-06 40C8.61114e-07 52.15 9.85 62 22 62Z" fill="#4E7AB5"/>
<path d="M22 24C13.163 24 6 31.163 6 40C6 48.837 13.163 56 22 56C30.837 56 38 48.837 38 40C38 31.163 30.837 24 22 24Z" fill="white"/>
</svg>
