<svg width="80" height="80" viewBox="0 0 80 80" fill="none" xmlns="http://www.w3.org/2000/svg">
<path d="M22 61.5C10.145 61.5 0.5 51.855 0.5 40C0.5 28.145 10.145 18.5 22 18.5H58C69.855 18.5 79.5 28.145 79.5 40C79.5 51.855 69.855 61.5 58 61.5H22Z" fill="#8BB7F0"/>
<path d="M58 19C69.579 19 79 28.421 79 40C79 51.579 69.579 61 58 61H22C10.421 61 1 51.579 1 40C1 28.421 10.421 19 22 19H58ZM58 18H22C9.85 18 0 27.85 0 40C0 52.15 9.85 62 22 62H58C70.15 62 80 52.15 80 40C80 27.85 70.15 18 58 18Z" fill="#4E7AB5"/>
<path d="M58 56C66.837 56 74 48.837 74 40C74 31.163 66.837 24 58 24C49.163 24 42 31.163 42 40C42 48.837 49.163 56 58 56Z" fill="white"/>
</svg>
