<svg width="19" height="19" viewBox="0 0 19 19" fill="none" xmlns="http://www.w3.org/2000/svg">
<path d="M9.5 17.8125C14.0909 17.8125 17.8125 14.0909 17.8125 9.5C17.8125 4.90913 14.0909 1.1875 9.5 1.1875C4.90913 1.1875 1.1875 4.90913 1.1875 9.5C1.1875 14.0909 4.90913 17.8125 9.5 17.8125Z" fill="#020E7D"/>
<path d="M15.4375 9.5H13.0625C13.0625 10.4448 12.6872 11.351 12.0191 12.0191C11.351 12.6872 10.4448 13.0625 9.5 13.0625C8.55517 13.0625 7.64903 12.6872 6.98093 12.0191C6.31283 11.351 5.9375 10.4448 5.9375 9.5C5.9375 8.55517 6.31283 7.64903 6.98093 6.98093C7.64903 6.31283 8.55517 5.9375 9.5 5.9375V7.125L13.0625 4.75L9.5 2.375V3.5625C7.92528 3.5625 6.41505 4.18806 5.30155 5.30155C4.18806 6.41505 3.5625 7.92528 3.5625 9.5C3.5625 11.0747 4.18806 12.5849 5.30155 13.6984C6.41505 14.8119 7.92528 15.4375 9.5 15.4375C11.0747 15.4375 12.5849 14.8119 13.6984 13.6984C14.8119 12.5849 15.4375 11.0747 15.4375 9.5Z" fill="white"/>
</svg>
