<svg width="19" height="22" viewBox="0 0 19 22" fill="none" xmlns="http://www.w3.org/2000/svg">
<path d="M9.5 20.417C14.0909 20.417 17.8125 16.3293 17.8125 11.2869C17.8125 6.24445 14.0909 2.15675 9.5 2.15675C4.90913 2.15675 1.1875 6.24445 1.1875 11.2869C1.1875 16.3293 4.90913 20.417 9.5 20.417Z" fill="#020E7D"/>
<path d="M15.4375 11.2869H13.0625C13.0625 12.3246 12.6872 13.3199 12.0191 14.0537C11.351 14.7875 10.4448 15.1998 9.5 15.1998C8.55517 15.1998 7.64903 14.7875 6.98093 14.0537C6.31283 13.3199 5.9375 12.3246 5.9375 11.2869C5.9375 10.2491 6.31283 9.25385 6.98093 8.52003C7.64903 7.78622 8.55517 7.37397 9.5 7.37397V8.67827L13.0625 6.06967L9.5 3.46106V4.76536C7.92528 4.76536 6.41505 5.45245 5.30155 6.67547C4.18806 7.89849 3.5625 9.55727 3.5625 11.2869C3.5625 13.0165 4.18806 14.6753 5.30155 15.8983C6.41505 17.1213 7.92528 17.8084 9.5 17.8084C11.0747 17.8084 12.5849 17.1213 13.6984 15.8983C14.8119 14.6753 15.4375 13.0165 15.4375 11.2869Z" fill="white"/>
</svg>
