<svg width="180" height="180" viewBox="0 0 180 180" fill="none" xmlns="http://www.w3.org/2000/svg">
<path d="M172.494 0H157.482H135H45H22.5183H7.5061C3.36859 0 0 3.36859 0 7.5061C0 11.6436 3.36859 15.0122 7.5061 15.0122H15.0122V172.494C15.0122 176.631 18.3808 180 22.5183 180H45C49.1375 180 52.5061 176.631 52.5061 172.494V164.988H127.494V172.494C127.494 176.631 130.862 180 135 180H157.482C161.619 180 164.988 176.631 164.988 172.494V14.9756H172.494C176.631 14.9756 180 11.607 180 7.46949C180 3.36859 176.631 0 172.494 0ZM52.5061 37.4939H82.4939V127.494H52.5061V37.4939ZM127.494 149.976H52.5061V142.469H127.494V149.976ZM127.494 127.457H97.5061V89.9634H105.012C109.15 89.9634 112.518 86.5948 112.518 82.4573C112.518 78.3198 109.15 74.9512 105.012 74.9512H97.5061V37.4939H127.494V127.457ZM127.494 22.4817H52.5061V14.9756H127.494V22.4817Z" fill="black"/>
</svg>
