<svg width="171" height="171" viewBox="0 0 171 171" fill="none" xmlns="http://www.w3.org/2000/svg">
<path fill-rule="evenodd" clip-rule="evenodd" d="M46.9716 107.329L43.6318 108.238C36.578 110.135 28.4288 106.154 27.4937 98.9128L25.4897 83.3358L45.4219 73.9041C45.4219 73.9041 58.1133 100.462 46.9716 107.329Z" fill="#4FC3F7"/>
<path fill-rule="evenodd" clip-rule="evenodd" d="M45.4485 73.9041L25.5164 83.3358L27.1195 95.8936C30.0585 97.3631 33.3182 98.0578 36.6581 97.8441L39.5704 108.665C40.9331 108.719 42.3225 108.558 43.6584 108.211L46.9982 107.303C58.1667 100.436 45.4485 73.8773 45.4485 73.8773V73.9041Z" fill="#4E7AB5"/>
<path fill-rule="evenodd" clip-rule="evenodd" d="M94.5044 125.792V103.963L117.429 96.9089V114.303L94.5044 125.792Z" fill="#4E7AB5"/>
<path fill-rule="evenodd" clip-rule="evenodd" d="M146.178 137.254H105.967C99.6077 137.254 94.5044 132.151 94.5044 125.792C94.5044 119.433 99.6077 114.33 105.967 114.33H134.716L146.178 137.254Z" fill="#4FC3F7"/>
<path fill-rule="evenodd" clip-rule="evenodd" d="M124.429 114.303V125.765C124.429 132.124 129.532 137.227 135.892 137.227C139.231 137.227 142.224 135.811 144.335 133.54L134.716 114.303H124.429Z" fill="#4E7AB5"/>
<path fill-rule="evenodd" clip-rule="evenodd" d="M43.0439 92.6873L47.1853 108.157C48.361 112.539 52.823 115.131 57.2316 113.955L114.062 98.7258C118.444 97.5501 121.036 93.0881 119.86 88.6795L115.826 73.6101L98.5121 64.4456L43.0707 92.6606L43.0439 92.6873Z" fill="#F0F3F5"/>
<path fill-rule="evenodd" clip-rule="evenodd" d="M157.641 125.792C157.641 132.151 152.537 137.254 146.178 137.254C139.819 137.254 134.716 132.151 134.716 125.792V107.302C134.716 100.943 139.819 95.8401 146.178 95.8401H152.484C155.316 95.8401 157.641 98.138 157.641 100.997V125.819V125.792Z" fill="#F0F3F5"/>
<path fill-rule="evenodd" clip-rule="evenodd" d="M146.178 95.8134C145.617 95.8134 145.083 95.8669 144.549 95.9203C146.873 96.428 148.61 98.4853 148.61 100.97V125.765C148.61 130.521 145.751 134.582 141.636 136.319C143.026 136.907 144.549 137.228 146.152 137.228C152.511 137.228 157.614 132.098 157.614 125.765V100.97C157.614 98.1113 155.316 95.8134 152.457 95.8134H146.152H146.178Z" fill="#4FC3F7"/>
<path fill-rule="evenodd" clip-rule="evenodd" d="M18.997 57.1247L105.218 34.013C109.493 32.8641 113.875 35.4023 115.024 39.6773L121.49 63.8044C122.639 68.0794 120.101 72.4613 115.826 73.6102L46.8112 92.0995C39.3567 94.1034 31.4212 91.3247 26.8256 85.1259L14.8556 68.9878C11.6493 64.6861 13.8136 58.4873 18.997 57.098V57.1247Z" fill="#020E7D"/>
<path fill-rule="evenodd" clip-rule="evenodd" d="M107.596 33.7458C106.822 33.7191 105.993 33.7992 105.192 34.013L96.6685 36.2841C100.943 35.1619 105.299 37.7001 106.448 41.9484L112.913 66.0755C114.062 70.3237 111.551 74.7056 107.303 75.8545L115.826 73.5834C120.101 72.4345 122.639 68.0527 121.49 63.7777L115.024 39.6506C114.089 36.1772 111.016 33.8526 107.623 33.7191L107.596 33.7458Z" fill="black"/>
<path fill-rule="evenodd" clip-rule="evenodd" d="M107.302 75.908L111.337 90.9773C112.513 95.3592 109.921 99.8212 105.539 100.997L114.062 98.7258C118.444 97.5502 121.036 93.0881 119.86 88.7063L115.826 73.6369L107.302 75.908Z" fill="#4FC3F7"/>
<path d="M152.484 93.1416H146.178C138.376 93.1416 132.044 99.4739 132.044 107.276V111.631H120.101V97.6838C120.528 97.2028 121.036 96.802 121.357 96.2409C122.799 93.7294 123.2 90.7903 122.425 87.9848L118.952 74.9728C123.04 72.6216 125.338 67.8923 124.055 63.1097L117.589 38.9827C116.841 36.2306 115.078 33.9328 112.62 32.49C110.161 31.0739 107.276 30.6998 104.524 31.4213L18.3024 54.533C15.016 55.4147 12.3708 57.8728 11.2487 61.0791C10.1265 64.2853 10.6608 67.8656 12.6915 70.5909L22.898 84.3778L24.8218 99.2334C25.3027 103.028 27.4135 106.341 30.7801 108.585C33.4787 110.402 36.7383 111.337 40.0247 111.337C41.4676 111.337 42.9104 111.15 44.3265 110.776L45.3952 110.482C47.1854 114.33 50.926 116.868 55.1208 116.868C56.056 116.868 56.9911 116.761 57.9263 116.494L91.8324 107.409V125.738C91.8324 133.54 98.1647 139.873 105.967 139.873H146.178C153.98 139.873 160.313 133.54 160.313 125.738V100.917C160.313 96.615 156.812 93.0881 152.484 93.0881V93.1416ZM16.2985 62.8425C16.8596 61.2661 18.0887 60.1172 19.6918 59.6897L105.913 36.6047C107.276 36.2306 108.719 36.4177 109.948 37.1391C111.177 37.8605 112.059 39.0094 112.433 40.372L118.898 64.4991C119.647 67.3312 117.963 70.2703 115.131 71.0452L46.1166 89.5345C39.6774 91.2713 32.9443 88.92 28.9899 83.5495L17.0199 67.4114C16.0313 66.0755 15.7641 64.4189 16.3252 62.8425H16.2985ZM33.7458 104.176C32.303 103.215 30.4862 101.451 30.1121 98.5655L29.1502 91.1109C32.5969 93.6759 36.6849 95.1455 40.9599 95.3325L43.6585 105.432L42.8836 105.646C39.811 106.474 36.3108 105.913 33.7191 104.176H33.7458ZM56.5102 111.39C53.5711 112.165 50.5252 110.429 49.7504 107.49L46.3571 94.8516C46.7312 94.7714 47.0785 94.7981 47.4526 94.718L113.902 76.9233L117.242 89.4009C117.616 90.8438 117.429 92.3133 116.708 93.5958C115.986 94.8783 114.784 95.7867 113.341 96.1608L56.5102 111.39ZM114.73 101.317V111.658H105.94C102.6 111.658 99.5808 112.86 97.1494 114.81V106.02L114.73 101.317ZM97.1494 125.792C97.1494 120.956 101.104 117.001 105.94 117.001H132.017V125.792C132.017 129.132 133.22 132.151 135.17 134.582H105.94C101.104 134.582 97.1494 130.628 97.1494 125.792ZM154.942 125.792C154.942 130.628 150.988 134.582 146.152 134.582C141.316 134.582 137.361 130.628 137.361 125.792V107.303C137.361 102.466 141.316 98.512 146.152 98.512H152.457C153.82 98.512 154.942 99.6342 154.942 100.997V125.819V125.792Z" fill="black"/>
<path d="M146.178 120.101C144.709 120.101 143.506 121.303 143.506 122.773V125.765C143.506 127.235 144.709 128.437 146.178 128.437C147.648 128.437 148.85 127.235 148.85 125.765V122.773C148.85 121.303 147.648 120.101 146.178 120.101Z" fill="black"/>
<path d="M109.066 123.12H106.073C104.604 123.12 103.402 124.322 103.402 125.792C103.402 127.261 104.604 128.464 106.073 128.464H109.066C110.536 128.464 111.738 127.261 111.738 125.792C111.738 124.322 110.536 123.12 109.066 123.12Z" fill="black"/>
<path d="M82.0801 54.3994C82.3473 53.9452 82.4809 53.4375 82.4809 52.9298C82.4809 51.8878 81.9198 50.8992 81.0114 50.3916C80.5572 50.1244 80.0495 49.9908 79.5418 49.9908C78.4998 49.9908 77.5112 50.5519 77.0036 51.4603C76.7364 51.9145 76.6028 52.4222 76.6028 52.9298C76.6028 53.9719 77.1639 54.9605 78.0723 55.4681C79.4617 56.2697 81.2786 55.7888 82.0801 54.3994Z" fill="black"/>
<path d="M91.3248 52.7161C92.3668 52.7161 93.3554 52.155 93.8631 51.2466C94.1303 50.7924 94.2639 50.2847 94.2639 49.777C94.2639 48.735 93.7028 47.7464 92.7943 47.2388C92.3401 46.9716 91.8325 46.838 91.3248 46.838C90.2828 46.838 89.2942 47.3991 88.7865 48.3075C88.5193 48.7617 88.3857 49.2694 88.3857 49.777C88.3857 50.8191 88.9468 51.8077 89.8553 52.3153C90.3095 52.5825 90.8171 52.7161 91.3248 52.7161Z" fill="black"/>
<path d="M103.135 49.5633C104.177 49.5633 105.165 49.0022 105.673 48.0937C105.94 47.6395 106.074 47.1319 106.074 46.6242C106.074 45.5822 105.513 44.5936 104.604 44.0859C104.15 43.8187 103.642 43.6852 103.135 43.6852C102.093 43.6852 101.104 44.2462 100.596 45.1547C99.7947 46.5441 100.276 48.3609 101.665 49.1625C102.119 49.4297 102.627 49.5633 103.135 49.5633Z" fill="black"/>
</svg>
