<svg width="70" height="70" viewBox="0 0 70 70" fill="none" xmlns="http://www.w3.org/2000/svg">
<path d="M7.56177 30.0698C7.56177 27.0408 8.52847 24.3341 10.4297 21.9495C12.3308 19.565 14.7476 18.0505 17.6799 17.406C18.4855 13.797 20.3222 10.8002 23.2223 8.48014C26.1225 6.16006 29.4092 5.00001 33.1472 5.00001C36.7562 5.00001 40.0107 6.12783 42.8786 8.38347C45.7465 10.6391 47.5832 13.5392 48.4533 17.0516H49.3233C52.9323 17.0516 56.0258 18.3083 58.6037 20.8539C61.1493 23.3674 62.4382 26.4608 62.4382 30.0376C62.4382 31.971 62.0515 33.8077 61.246 35.5156C60.4404 37.2234 59.3448 38.7057 57.927 39.9302V40.0268C57.927 41.928 57.3147 43.6359 56.1225 45.1504C54.9302 46.6649 53.4157 47.5993 51.6112 48.0182C51.16 50.0161 50.1611 51.7239 48.6788 53.1095C47.1966 54.4952 45.4243 55.3652 43.4264 55.6874C44.3609 56.783 44.812 58.0075 44.812 59.3287C44.812 60.8754 44.2642 62.1966 43.1686 63.3244C42.073 64.42 40.7519 65 39.2052 65C37.6584 65 36.3373 64.4522 35.2417 63.3244C34.1461 62.2288 33.5983 60.8754 33.5983 59.3287C33.5983 58.7164 33.6949 58.1042 33.9205 57.4919H33.5983C31.7293 57.4919 30.1182 56.8152 28.7648 55.4619C27.4114 54.1085 26.7347 52.4973 26.7347 50.6283C26.7347 49.3394 27.0569 48.1794 27.7014 47.1804C26.0258 46.246 24.8335 44.9248 24.0924 43.1525H19.9678V43.1205C16.5199 42.8947 13.5875 41.5414 11.1708 39.0279C8.75403 36.5145 7.56177 33.55 7.56177 30.0698ZM12.073 29.2642C12.073 31.8421 12.9753 34.0333 14.7798 35.8378C16.5843 37.6423 18.7755 38.5446 21.3212 38.5446C22.9001 38.5446 24.3824 38.1901 25.7358 37.449C26.1225 39.8335 27.2503 41.8314 29.087 43.4425C30.9237 45.0537 33.1149 45.8271 35.5961 45.8271C38.3996 45.8271 40.7841 44.8281 42.7497 42.8625C44.0709 44.4092 45.7143 45.1504 47.7121 45.1504C49.5489 45.1504 51.0956 44.5059 52.4168 43.217C53.7057 41.928 54.3502 40.3491 54.3502 38.5124C55.6391 37.6423 56.6702 36.5467 57.4114 35.1611C58.1525 33.8077 58.5392 32.3255 58.5392 30.7465C58.5392 28.2009 57.637 26.0097 55.8002 24.2374C53.9635 22.4651 51.7723 21.5628 49.1944 21.5628C47.3899 21.5628 45.7465 22.0462 44.2642 22.9807C44.4576 22.2073 44.522 21.3373 44.522 20.435C44.522 17.3416 43.4264 14.6993 41.203 12.5081C38.9796 10.3169 36.3051 9.2535 33.1794 9.2535C30.1504 9.2535 27.5403 10.3169 25.3491 12.3792C23.1579 14.4415 21.9979 17.0193 21.9012 20.0161C21.8368 20.0161 21.7401 20.0161 21.6434 20.0161C21.5145 20.0161 21.4178 20.0161 21.3534 20.0161C18.8078 20.0161 16.6488 20.9184 14.812 22.7229C12.9753 24.5274 12.073 26.7508 12.073 29.2642Z" fill="#C00606"/>
</svg>
